<?xml version="1.0" encoding="UTF-8"?>
<svg width="36px" height="28px" viewBox="0 0 36 28" version="1.1" xmlns="http://www.w3.org/2000/svg" xmlns:xlink="http://www.w3.org/1999/xlink">
    <!-- Generator: Sketch 46.2 (44496) - http://www.bohemiancoding.com/sketch -->
    <title>inbox</title>
    <desc>Created with Sketch.</desc>
    <defs></defs>
    <g id="Page-1" stroke="none" stroke-width="1" fill="none" fill-rule="evenodd">
        <g id="Contas" transform="translate(-37.000000, -189.000000)" fill-rule="nonzero" fill="#FFFFFF">
            <g id="inbox" transform="translate(37.000000, 189.000000)">
                <path d="M21.926505,19 L14.073356,19 C13.4814593,19 13,19.5284491 13,20.178114 L13,22.8218097 C13,23.4714746 13.4814593,24 14.073356,24 L21.9265745,24 C22.5184711,24 23,23.4715509 23,22.8218097 L23,20.178114 C22.9998609,19.5285254 22.5184016,19 21.926505,19 Z M21.619812,22.4852602 L14.3799794,22.4852602 L14.3799794,20.5148161 L21.619812,20.5148161 L21.619812,22.4852602 Z" id="Shape"></path>
                <path d="M35.64675,13.3641589 L35.6579297,13.3585336 L30.4263281,3.01462844 C30.0033984,2.17855986 29.1589453,1.65926916 28.2223125,1.65926916 L27.2280234,1.65926916 L27.2280234,0.697684814 C27.2280234,0.312347908 26.9156953,0 26.5303828,0 L9.4696875,0 C9.084375,0 8.77204688,0.312347908 8.77204688,0.697684814 L8.77204688,1.65926916 L7.77775781,1.65926916 C6.841125,1.65926916 5.99667188,2.17855986 5.57374219,3.01462844 L0.342070313,13.3585336 L0.35325,13.3641589 C0.129164063,13.7332526 0,14.1661238 0,14.6285281 L0,25.5564155 C0,26.903829 1.09617188,28 2.4435,28 L33.5565703,28 C34.9038984,28 36,26.9037587 36,25.5564155 L36,14.6285281 C36,14.1661238 35.8708359,13.7332526 35.64675,13.3641589 Z M27.2279531,3.20968767 L28.2222422,3.20968767 C28.5709219,3.20968767 28.8852891,3.40312961 29.0428594,3.71449308 L33.327,12.185014 L30.4138828,12.185014 L30.4138828,9.57864575 C30.4138828,9.19330884 30.1015547,8.88096093 29.7162422,8.88096093 L28.8531562,8.88096093 L28.8531562,5.13820044 C28.8531562,4.75286353 28.5408281,4.44051562 28.1555156,4.44051562 L27.2279531,4.44051562 L27.2279531,3.20968767 Z M29.0186719,10.2762602 L29.0186719,12.1849436 L25.3371797,12.1849436 C24.7054922,12.1849436 24.1296328,12.5571313 23.8701094,13.1329568 L22.8649219,15.3627074 C22.8553594,15.3837322 22.8343359,15.3973737 22.8112031,15.3973737 L13.1888672,15.3973737 C13.1657344,15.3973737 13.1447109,15.3837322 13.1351484,15.3626371 L12.1300313,13.1330271 C11.8704375,12.5571313 11.2945781,12.1849436 10.6628906,12.1849436 L6.98139844,12.1849436 L6.98139844,10.2762602 L29.0186719,10.2762602 L29.0186719,10.2762602 Z M10.1673281,1.39536963 L25.8326719,1.39536963 L25.8326719,4.44044531 L10.1673281,4.44044531 L10.1673281,1.39536963 Z M27.457875,5.83581494 L27.457875,8.88089061 L8.542125,8.88089061 L8.542125,5.83581494 L27.457875,5.83581494 Z M6.95714062,3.71449308 C7.11464062,3.40305929 7.42907812,3.20968767 7.77775781,3.20968767 L8.77204687,3.20968767 L8.77204687,4.44044531 L7.84448437,4.44044531 C7.45917187,4.44044531 7.14684375,4.75279322 7.14684375,5.13813012 L7.14684375,8.88089061 L6.28375781,8.88089061 C5.89844531,8.88089061 5.58611719,9.19323852 5.58611719,9.57857543 L5.58611719,12.1849436 L2.673,12.1849436 L6.95714062,3.71449308 Z M33.5565703,26.4495112 L2.4435,26.4495112 C1.95103125,26.4495112 1.55032031,26.0487749 1.55032031,25.5564155 L1.55032031,14.6285281 C1.55032031,14.1360985 1.95096094,13.7354325 2.4435,13.7354325 L10.6628906,13.7354325 C10.6859531,13.7354325 10.7071172,13.749074 10.7166797,13.7702394 L11.7217969,15.9998493 C11.9813906,16.5757452 12.5571797,16.9477922 13.1888672,16.9477922 L22.8111328,16.9477922 C23.4428203,16.9477922 24.0186797,16.5756749 24.2782031,15.9999196 L25.2833906,13.7702394 L25.2833906,13.770169 C25.2929531,13.749074 25.3139766,13.7354325 25.3371094,13.7354325 L33.5565,13.7354325 C34.0489687,13.7354325 34.4495391,14.1361688 34.4495391,14.6285281 L34.4495391,25.5564155 L34.4496094,25.5564155 C34.4496797,26.0489155 34.0490391,26.4495112 33.5565703,26.4495112 Z" id="Shape"></path>
            </g>
        </g>
    </g>
</svg>