<?xml version="1.0" encoding="UTF-8"?>
<svg width="33px" height="33px" viewBox="0 0 33 33" version="1.1" xmlns="http://www.w3.org/2000/svg" xmlns:xlink="http://www.w3.org/1999/xlink">
    <!-- Generator: Sketch 46.2 (44496) - http://www.bohemiancoding.com/sketch -->
    <title>Group 2</title>
    <desc>Created with Sketch.</desc>
    <defs></defs>
    <g id="Page-1" stroke="none" stroke-width="1" fill="none" fill-rule="evenodd">
        <g id="ooto-Sessions-Copy-5" transform="translate(-137.000000, -280.000000)">
            <g id="Group-2" transform="translate(137.000000, 280.000000)">
                <circle id="Oval-2" fill="#D2461C" cx="16.5" cy="16.5" r="16.5"></circle>
                <g id="pptx-file-format" transform="translate(8.000000, 7.000000)" fill-rule="nonzero" fill="#FFFFFF">
                    <path d="M7.3461884,10 C7.17569619,10 7.06031038,10.0145139 7,10.0286231 L7,10.9807111 C7.07161664,10.9953059 7.15937181,11 7.2802094,11 C7.72545922,11 8,10.8037121 8,10.4734272 C8,10.1771069 7.76343586,10 7.3461884,10 Z" id="Shape"></path>
                    <path d="M16.8609158,7.15371947 L16.3728533,7.15371947 L16.3728533,4.83648282 C16.3728533,4.8219285 16.370555,4.80748362 16.3685903,4.79271044 C16.3678118,4.7007155 16.3380076,4.61032554 16.2739878,4.53883066 L12.3552904,0.134125857 C12.3540671,0.132885639 12.3529179,0.132520869 12.3521394,0.131390083 C12.3287854,0.105710289 12.3015761,0.0842618245 12.2726986,0.0658774264 C12.2642096,0.0601505405 12.2556094,0.05544501 12.2466755,0.0505935717 C12.2217646,0.0372794739 12.1952596,0.0260810409 12.1680503,0.0180196283 C12.1606363,0.0161228253 12.1540008,0.0131317129 12.1466609,0.011161956 C12.1170421,0.00430428367 12.0863111,0 12.0552095,0 L2.42426102,0 C1.98450066,0 1.62722085,0.351966383 1.62722085,0.78432803 L1.62722085,7.15368299 L1.13923253,7.15368299 C0.510119056,7.15368299 0,7.65546033 0,8.27462059 L0,14.1040068 C0,14.7228753 0.510119056,15.2251633 1.13923253,15.2251633 L1.62722085,15.2251633 L1.62722085,19.2157084 C1.62722085,19.6481066 1.98450066,20 2.42426102,20 L15.575776,20 C16.0151657,20 16.3728162,19.6481066 16.3728162,19.2157084 L16.3728162,15.2251998 L16.8608787,15.2251998 C17.4898068,15.2251998 18,14.7231306 18,14.1042257 L18,8.27494889 C18.0000371,7.65549681 17.4898439,7.15371947 16.8609158,7.15371947 Z M2.42426102,0.78432803 L11.6566708,0.78432803 L11.6566708,4.79701472 C11.6566708,5.01368799 11.8352366,5.18917874 12.0552095,5.18917874 L15.5758131,5.18917874 L15.5758131,7.15386537 L2.42426102,7.15386537 L2.42426102,0.78432803 Z M9.16661072,9.68624325 L9.16661072,8.85781455 L12.571964,8.85781455 L12.571964,9.68624325 L11.3623728,9.68624325 L11.3623728,13.2180174 L10.3567402,13.2180174 L10.3567402,9.68624325 L9.16661072,9.68624325 Z M8.86311935,10.1841905 C8.86311935,10.6108253 8.71891739,10.9728958 8.45583223,11.2187871 C8.11375108,11.535845 7.60741316,11.678543 7.01614807,11.678543 C6.88432746,11.678543 6.76592616,11.6720136 6.67406692,11.6588454 L6.67406692,13.2178715 L5.68133468,13.2178715 L5.68133468,8.91603182 C5.99034947,8.86434393 6.42440106,8.82527709 7.03572098,8.82527709 C7.65404711,8.82527709 8.09425231,8.94178456 8.39040384,9.17454417 C8.67309898,9.39471923 8.86311935,9.7570086 8.86311935,10.1841905 Z M1.86157683,13.2178715 L1.86157683,8.91603182 C2.17059162,8.86434393 2.60423544,8.82527709 3.21559243,8.82527709 C3.83373321,8.82527709 4.27390134,8.94178456 4.56997873,9.17454417 C4.85271094,9.3947557 5.04321322,9.7570086 5.04321322,10.1838257 C5.04321322,10.6104605 4.89852935,10.9727134 4.63551833,11.2186047 C4.29340011,11.5356626 3.78750703,11.6781417 3.19564882,11.6781417 C3.06456961,11.6781417 2.94557519,11.6716123 2.8535306,11.6586265 L2.8535306,13.2176527 L1.86157683,13.2176527 L1.86157683,13.2178715 Z M15.5758131,19.0031206 L2.42426102,19.0031206 L2.42426102,15.2251998 L15.575776,15.2251998 L15.575776,19.0031206 L15.5758131,19.0031206 Z M15.5575377,13.2178715 L15.1562929,12.4285826 C14.9922586,12.1245105 14.8865722,11.8981709 14.7616466,11.6460055 L14.7488205,11.6460055 C14.6569612,11.8981709 14.5448247,12.1245105 14.4070729,12.4285826 L14.0387092,13.2178715 L12.8950283,13.2178715 L14.1766464,11.0114519 L12.9411433,8.85781455 L14.0913485,8.85781455 L14.4790256,9.65370579 C14.6108092,9.91882048 14.7094151,10.1323567 14.8145083,10.3781751 L14.8277052,10.3781751 C14.9327984,10.0997463 15.0184299,9.90568877 15.1301586,9.65370579 L15.5048984,8.85781455 L16.6491353,8.85781455 L15.3998052,10.9861369 L16.7145267,13.2178715 L15.5575377,13.2178715 L15.5575377,13.2178715 Z" id="Shape"></path>
                    <path d="M4,10.4734982 C4,10.1770831 3.76376587,10 3.34626819,10 C3.17633942,10 3.06039021,10.0145119 3,10.0286192 L3,10.9807137 C3.07169402,10.9951447 3.15933726,11 3.28036544,11 C3.72548777,11 4,10.8038465 4,10.4734982 Z" id="Shape"></path>
                </g>
            </g>
        </g>
    </g>
</svg>