<?xml version="1.0" encoding="UTF-8"?>
<svg width="33px" height="34px" viewBox="0 0 33 34" version="1.1" xmlns="http://www.w3.org/2000/svg" xmlns:xlink="http://www.w3.org/1999/xlink">
    <!-- Generator: Sketch 46.2 (44496) - http://www.bohemiancoding.com/sketch -->
    <title>agenda</title>
    <desc>Created with Sketch.</desc>
    <defs></defs>
    <g id="Page-1" stroke="none" stroke-width="1" fill="none" fill-rule="evenodd">
        <g id="Contas" transform="translate(-39.000000, -89.000000)" fill-rule="nonzero" fill="#FFFFFF">
            <g id="agenda" transform="translate(39.000000, 89.000000)">
                <path d="M20.853505,18.3577354 L18.9955477,17.6197905 L18.9955477,17.4944641 L19.3984022,17.2742836 C19.4115787,17.2670126 19.4245471,17.259411 19.4372382,17.2514129 C19.9278205,16.9426579 20.2489112,16.4072446 20.2960692,15.8190832 C20.2974562,15.8015666 20.2981497,15.7839178 20.2981497,15.7664012 L20.2981497,15.7551641 C20.6394907,15.5335955 20.8641155,15.1601943 20.8641155,14.7377466 L20.8641155,13.8755329 C20.8641155,13.4530191 20.63956,13.079684 20.2981497,12.8581155 L20.2981497,12.3708894 C20.2981497,11.0635555 19.1782851,10 17.8018253,10 L16.2103803,10 C14.8301756,10 13.7071902,11.0635555 13.7071902,12.3708894 L13.7071902,12.8577189 C13.3646703,13.0795518 13.1392133,13.4539445 13.1392133,13.8775159 L13.1392133,14.7359619 C13.1392133,15.1595333 13.3646703,15.5339921 13.7071902,15.755759 L13.7071902,15.7665995 C13.7071902,15.7841161 13.7078144,15.8016988 13.7092707,15.8192154 C13.75629,16.4063853 14.078213,16.9418647 14.5703903,17.2516112 C14.5833588,17.2597415 14.5966046,17.2675414 14.6101279,17.2748785 L15.0077811,17.4915557 L15.0077811,17.6186668 L13.1464257,18.3579337 C12.4714416,18.6259708 12,19.3259081 12,20.059887 L12,21.3093169 C12,21.6907823 12.3244195,22 12.7246387,22 L21.2753613,22 C21.6755805,22 22,21.6907823 22,21.3093169 L22,20.0596887 C21.9999306,19.3256437 21.528489,18.6257064 20.853505,18.3577354 Z M20.5506533,20.6184354 L13.449208,20.6184354 L13.449208,20.0596887 C13.449208,19.8830684 13.5657855,19.6876095 13.7037921,19.6328783 L15.7116147,18.8355091 C16.0892951,18.6855934 16.362673,18.3675844 16.4429804,17.984863 C16.4523426,17.9403113 16.4570584,17.8949665 16.4570584,17.8494233 L16.4570584,17.0907889 C16.4570584,16.8429785 16.3178035,16.6141389 16.0920691,16.491126 L15.3551555,16.0896322 C15.2498821,16.0162607 15.1739438,15.8804905 15.1564676,15.7349374 L15.1564676,15.2773243 C15.1564676,14.9470866 14.9133263,14.6710513 14.5884907,14.6028357 L14.5884907,14.0107083 C14.9133263,13.9424926 15.1564676,13.6663912 15.1564676,13.3362197 L15.1564676,12.3708894 C15.1564676,11.8252305 15.6292269,11.3813663 16.2103803,11.3813663 L17.8018253,11.3813663 C18.3792338,11.3813663 18.8488724,11.8252966 18.8488724,12.3708894 L18.8488724,13.3360875 C18.8488724,13.6655319 19.0909734,13.9411045 19.4148381,14.0101134 L19.4148381,14.6031001 C19.0909734,14.6720428 18.8488724,14.9476154 18.8488724,15.277126 L18.8488724,15.7348052 C18.8313962,15.8812837 18.7562207,16.0171861 18.6521263,16.0896983 L17.9104275,16.495092 C17.6851092,16.618171 17.546201,16.8468123 17.546201,17.0942261 L17.546201,17.8527283 C17.546201,17.899924 17.5512636,17.9469214 17.5613193,17.9931256 C17.6439846,18.3726741 17.9157674,18.6874442 18.2881079,18.8353108 L20.2959999,19.63268 C20.4340758,19.6875434 20.5505839,19.8829362 20.5505839,20.0594904 L20.5505839,20.6184354 L20.5506533,20.6184354 Z" id="Shape"></path>
                <path d="M23.3673657,10.6326558 C19.8571082,7.12248171 14.145611,7.1224144 10.6354881,10.6326558 C9.23849324,12.0296443 8.3565704,13.7997419 8.08496616,15.7515139 C7.82238174,17.6390706 8.17307767,19.597843 9.07250166,21.2671749 C9.25673481,21.6091187 9.68322414,21.7370784 10.0253041,21.5527114 C10.3672495,21.3684118 10.4951424,20.9418571 10.310842,20.5999133 C8.73304685,17.6716495 9.27551488,13.9819548 11.6301587,11.6273892 C14.5918901,8.66560401 19.4109637,8.66560401 22.3726278,11.6273892 C25.3343593,14.589107 25.3343593,19.4081585 22.3726278,22.369809 C20.017984,24.7245093 16.3282725,25.2669748 13.3999278,23.6890523 C13.0579152,23.5047527 12.6312912,23.6326451 12.4471254,23.9745889 C12.2628249,24.3165327 12.3907179,24.7431547 12.7326632,24.927387 C14.0404696,25.6321412 15.5259798,26 17.0157307,26 C17.4274787,26 17.8396306,25.971931 18.2483495,25.9149852 C20.2001305,25.6434496 21.9702362,24.7614635 23.3672984,23.364475 C26.877556,19.8543009 26.877556,14.1428973 23.3673657,10.6326558 Z" id="Shape"></path>
                <path d="M10.8541259,22.1458741 C10.6595795,21.9513753 10.3441388,21.9513753 10.1496401,22.1458741 L10.1458741,22.1496401 C9.95137532,22.3441865 9.95137532,22.6596272 10.1458741,22.8541259 C10.2431234,22.951423 10.370644,23 10.4980693,23 C10.6254946,23 10.7530629,22.9513753 10.8503599,22.8541259 L10.8541259,22.8503599 C11.0486247,22.6558135 11.0486247,22.3404205 10.8541259,22.1458741 Z" id="Shape"></path>
                <path d="M30.2500603,0 L0.687501371,0 C0.307859021,0 0,0.310648437 0,0.693878906 L0,33.3061211 C0,33.6893516 0.307793225,34 0.687501371,34 L29.5281477,34 C31.4425452,34 33,32.4280977 33,30.4959414 L33,2.77551562 C33,1.24511719 31.7663926,0 30.2500603,0 Z M28.3250038,30.5300742 C28.3250038,31.6782383 27.3995187,32.6122422 26.2619076,32.6122422 L23.5863172,32.6122422 L3.98756059,32.6122422 L3.98756059,30.0449102 C3.98756059,29.6616797 3.67976736,29.3510313 3.30005922,29.3510313 C2.92035107,29.3510313 2.61255785,29.6616797 2.61255785,30.0449102 L2.61255785,32.6122422 L1.37500274,32.6122422 L1.37500274,1.38775781 L2.61249205,1.38775781 L2.61249205,25.1618594 C2.61249205,25.5450898 2.92028528,25.8557383 3.29999342,25.8557383 C3.67970157,25.8557383 3.98749479,25.5450898 3.98749479,25.1618594 L3.98749479,1.38775781 L26.2618418,1.38775781 C27.3994529,1.38775781 28.324938,2.32176172 28.324938,3.46992578 L28.324938,30.5300742 L28.3250038,30.5300742 Z M31.6250631,30.4959414 C31.6250631,31.6628984 30.6844449,32.6122422 29.5282135,32.6122422 L29.0103997,32.6122422 C29.4432052,32.0317852 29.7000724,31.3106797 29.7000724,30.5300742 L29.7000724,27.4081836 L30.2500603,27.4081836 C30.7507671,27.4081836 31.2202867,27.2717852 31.6250631,27.0347813 L31.6250631,30.4959414 Z M31.6250631,24.632668 C31.6250631,25.3978672 31.0082265,26.0204258 30.2500603,26.0204258 L29.7000724,26.0204258 L29.7000724,18.7346641 L30.2500603,18.7346641 C31.0082265,18.7346641 31.6250631,19.3572227 31.6250631,20.1224219 L31.6250631,24.632668 Z M31.6250631,15.9592148 C31.6250631,16.7244141 31.0082265,17.3469727 30.2500603,17.3469727 L29.7000724,17.3469727 L29.7000724,10.0612109 L30.2500603,10.0612109 C31.0082265,10.0612109 31.6250631,10.6837695 31.6250631,11.4489687 L31.6250631,15.9592148 Z M31.6250631,4.45247266 L31.6250631,7.28569531 C31.6250631,8.05089453 31.0082265,8.67345312 30.2500603,8.67345312 L29.7000724,8.67345312 L29.7000724,3.46992578 C29.7000724,2.68925391 29.4431394,1.96808203 29.0103997,1.38775781 L30.2501261,1.38775781 C31.0082923,1.38775781 31.6251289,2.01031641 31.6251289,2.77551563 L31.6251289,4.45247266 L31.6250631,4.45247266 Z" id="Shape"></path>
                <path d="M3.5,27 C3.22384917,27 3,27.2246283 3,27.5005019 C3,27.7763755 3.22384917,28 3.5,28 C3.77615083,28 4,27.7763755 4,27.5005019 L4,27.4984942 C4,27.2226684 3.77615083,27 3.5,27 Z" id="Shape"></path>
            </g>
        </g>
    </g>
</svg>