<?xml version="1.0" encoding="UTF-8"?>
<svg width="112px" height="112px" viewBox="0 0 112 112" version="1.1" xmlns="http://www.w3.org/2000/svg" xmlns:xlink="http://www.w3.org/1999/xlink">
    <!-- Generator: Sketch 46.2 (44496) - http://www.bohemiancoding.com/sketch -->
    <title>Group 2</title>
    <desc>Created with Sketch.</desc>
    <defs>
        <linearGradient x1="23.0316216%" y1="-63.4202008%" x2="76.9748178%" y2="85.2979002%" id="linearGradient-1">
            <stop stop-color="#000000" stop-opacity="0.1" offset="0%"></stop>
            <stop stop-color="#000000" stop-opacity="0" offset="100%"></stop>
        </linearGradient>
    </defs>
    <g id="Page-1" stroke="none" stroke-width="1" fill="none" fill-rule="evenodd">
        <g id="ooto-Sessions-Copy-2" transform="translate(-691.000000, -149.000000)">
            <g id="Group-2" transform="translate(691.000000, 149.000000)">
                <circle id="Oval" fill="#FFFFFF" opacity="0.959522192" cx="56" cy="56" r="56"></circle>
                <g id="scan" transform="translate(20.000000, 29.000000)" fill-rule="nonzero">
                    <g id="Group" fill="#303C42">
                        <path d="M65.9999531,0 L61.4999531,0 C60.6708281,0 59.9999062,0.669614035 59.9999062,1.49712281 C59.9999062,2.32463158 60.6708281,2.99424561 61.4999531,2.99424561 L65.9999531,2.99424561 C67.6537031,2.99424561 68.9999063,4.33782456 68.9999063,5.98835088 L68.9999063,10.4795789 C68.9999063,11.3070877 69.6708281,11.9767018 70.4999531,11.9767018 C71.3290781,11.9767018 72,11.3070877 72,10.4795789 L72,5.98835088 C72,2.68561404 69.3091406,0 65.9999531,0 Z" id="Shape"></path>
                        <path d="M1.50004687,11.9765614 C2.32917187,11.9765614 3.00009375,11.3069474 3.00009375,10.4794386 L3.00009375,5.98821053 C3.00009375,4.33768421 4.34629687,2.99410526 6.00004687,2.99410526 L10.5000469,2.99410526 C11.3291719,2.99410526 12.0000937,2.32449123 12.0000937,1.49698246 C11.9999531,0.669614035 11.3291719,0 10.5000469,0 L6.00004687,0 C2.69085937,0 0,2.68561404 0,5.98835088 L0,10.4795789 C0,11.3070877 0.670921875,11.9765614 1.50004687,11.9765614 Z" id="Shape"></path>
                        <path d="M36,47.906386 C23.3145,47.906386 12.137625,39.6680702 8.19,27.4049123 C8.09479687,27.1080702 8.09479687,26.7865263 8.19,26.4896842 C12.1377656,14.2266667 23.3145,5.98835088 36,5.98835088 C48.6855,5.98835088 59.862375,14.2266667 63.81,26.4898246 C63.9052031,26.7866667 63.9052031,27.1082105 63.81,27.4050526 C59.862375,39.6680702 48.6855,47.906386 36,47.906386 Z" id="Shape"></path>
                    </g>
                    <path d="M11,27 C14.6307204,37.7870625 24.4171066,45 35.5,45 C46.5828934,45 56.3692796,37.7870625 60,27 C56.3692796,16.2129375 46.5828934,9 35.5,9 C24.4171066,9 14.6307204,16.2129375 11,27 Z" id="Shape" fill="#F2F2F2"></path>
                    <circle id="Oval" fill="#303C42" cx="36" cy="27" r="12"></circle>
                    <circle id="Oval" fill="#BBDEFB" cx="36" cy="27" r="9"></circle>
                    <g id="Group" transform="translate(0.000000, 42.000000)" fill="#303C42">
                        <path d="M70.4999531,0.0930697674 C69.6708281,0.0930697674 68.9999063,0.758790698 68.9999063,1.58148837 L68.9999063,6.04660465 C68.9999063,7.68753488 67.6537031,9.02330233 65.9999531,9.02330233 L61.4999531,9.02330233 C60.6708281,9.02330233 59.9999062,9.68902326 59.9999062,10.5117209 C59.9999062,11.3344186 60.6709687,12 61.4999531,12 L65.9999531,12 C69.3091406,12 72,9.33 72,6.04646512 L72,1.58134884 C72,0.758790698 71.3290781,0.0930697674 70.4999531,0.0930697674 Z" id="Shape"></path>
                        <path d="M10.5000469,9.02330233 L6.00004687,9.02330233 C4.34629687,9.02330233 3.00009375,7.68753488 3.00009375,6.04660465 L3.00009375,1.58148837 C3.00009375,0.758790698 2.32917187,0.0930697674 1.50004687,0.0930697674 C0.670921875,0.0930697674 0,0.758790698 0,1.58134884 L0,6.04646512 C0,9.33 2.69085937,12 6.00004687,12 L10.5000469,12 C11.3291719,12 12.0000937,11.3342791 12.0000937,10.5115814 C12.0000937,9.68888372 11.3291719,9.02330233 10.5000469,9.02330233 Z" id="Shape"></path>
                    </g>
                    <path d="M70.4998154,24 L1.50004395,24 C0.670920565,24 0,24.6709324 0,25.4999297 C0,26.3290676 0.670920565,27 1.50004395,27 L70.4999561,27 C71.3290794,27 72,26.3290676 72,25.4999297 C71.9998594,24.6709324 71.3289388,24 70.4998154,24 Z" id="Shape" fill="#E53935"></path>
                    <path d="M47.3541576,27 C47.3541576,33.6166875 42.0362969,38.9999531 35.5,38.9999531 C28.9637031,38.9999531 23.6458424,33.6166875 23.6458424,27 L11,27 C14.6307204,37.7870625 24.4171066,45 35.5,45 C46.5828934,45 56.3692796,37.7870625 60,27 L47.3541576,27 Z M35.5,36 C40.4026394,36 44.3906529,31.9629375 44.3906529,27 L26.6093471,27 C26.6093471,31.9629375 30.5973606,36 35.5,36 Z" id="Shape" fill="url(#linearGradient-1)"></path>
                </g>
            </g>
        </g>
    </g>
</svg>