<?xml version="1.0" encoding="UTF-8"?>
<svg width="34px" height="34px" viewBox="0 0 34 34" version="1.1" xmlns="http://www.w3.org/2000/svg" xmlns:xlink="http://www.w3.org/1999/xlink">
    <!-- Generator: Sketch 46.2 (44496) - http://www.bohemiancoding.com/sketch -->
    <title>file (1)</title>
    <desc>Created with Sketch.</desc>
    <defs></defs>
    <g id="Page-1" stroke="none" stroke-width="1" fill="none" fill-rule="evenodd">
        <g id="ooto-Sessions-Copy-5" transform="translate(-137.000000, -239.000000)" fill-rule="nonzero">
            <g id="file-(1)" transform="translate(137.000000, 239.000000)">
                <circle id="Oval" fill="#90DFAA" cx="17" cy="17" r="17"></circle>
                <path d="M21.0959538,28 L9.34566474,28 C8.60346821,28 8,27.386145 8,26.6311738 L8,7.36882617 C8,6.61385504 8.60346821,6 9.34566474,6 L24.6543353,6 C25.3965318,6 26,6.61385504 26,7.36882617 L26,23.0186017 L21.1028902,23.0186017 L21.1028902,28 L21.0959538,28 Z" id="Shape" fill="#FFFFFF"></path>
                <polygon id="Shape" fill="#ACB3BA" points="21 28 21 23 26 23"></polygon>
                <g id="Group" transform="translate(10.000000, 9.000000)" fill="#E6E9EE">
                    <rect id="Rectangle-path" x="0.0349462366" y="0" width="12.9370968" height="1.49573171"></rect>
                    <rect id="Rectangle-path" x="0.0349462366" y="3.14573171" width="12.9370968" height="1.49573171"></rect>
                    <rect id="Rectangle-path" x="0.0349462366" y="6.29817073" width="12.9370968" height="1.49573171"></rect>
                    <rect id="Rectangle-path" x="5.89193548" y="9.44390244" width="7.08709677" height="1.49573171"></rect>
                </g>
            </g>
        </g>
    </g>
</svg>