<?xml version="1.0" encoding="UTF-8"?>
<svg width="22px" height="22px" viewBox="0 0 22 22" version="1.1" xmlns="http://www.w3.org/2000/svg" xmlns:xlink="http://www.w3.org/1999/xlink">
    <!-- Generator: Sketch 46.2 (44496) - http://www.bohemiancoding.com/sketch -->
    <title>add-circular-outlined-button</title>
    <desc>Created with Sketch.</desc>
    <defs></defs>
    <g id="Page-1" stroke="none" stroke-width="1" fill="none" fill-rule="evenodd">
        <g id="Contas" transform="translate(-845.000000, -88.000000)" fill="#FFFFFF">
            <g id="add-circular-outlined-button" transform="translate(845.000000, 88.000000)">
                <g id="_x38__3_">
                    <path d="M11,0 C4.92454902,0 0,4.92454902 0,11 C0,17.075451 4.92454902,22 11,22 C17.075451,22 22,17.074732 22,11 C22,4.92526797 17.075451,0 11,0 L11,0 Z M11,20.625 C5.68423203,20.625 1.375,16.315768 1.375,11 C1.375,5.68423203 5.68423203,1.375 11,1.375 C16.315768,1.375 20.625,5.68423203 20.625,11 C20.625,16.315768 16.315768,20.625 11,20.625 L11,20.625 Z M15.125,10.3125 L11.6875,10.3125 L11.6875,6.875 C11.6875,6.4955 11.3795,6.1875 11,6.1875 C10.6205,6.1875 10.3125,6.4955 10.3125,6.875 L10.3125,10.3125 L6.875,10.3125 C6.4955,10.3125 6.1875,10.6205 6.1875,11 C6.1875,11.3795 6.4955,11.6875 6.875,11.6875 L10.3125,11.6875 L10.3125,15.125 C10.3125,15.5045 10.6205,15.8125 11,15.8125 C11.3795,15.8125 11.6875,15.5045 11.6875,15.125 L11.6875,11.6875 L15.125,11.6875 C15.5045,11.6875 15.8125,11.3795 15.8125,11 C15.8125,10.6205 15.5045,10.3125 15.125,10.3125 L15.125,10.3125 Z" id="Shape"></path>
                </g>
            </g>
        </g>
    </g>
</svg>